<svg width="198" height="60" viewBox="0 0 198 60" fill="none" xmlns="http://www.w3.org/2000/svg">
<path d="M78.5043 5.94092H83.8672L91.8928 28.562H86.753L85.2557 23.9128H76.9034L75.3663 28.562H70.407L78.5043 5.94092ZM78.1911 20.0129H83.9999L81.1353 11.1196L78.1911 20.0129Z" fill="white"/>
<path d="M115.351 11.8957C116.121 12.2212 116.794 12.7392 117.305 13.3996C117.798 14.0262 118.126 14.7649 118.261 15.5495C118.381 16.3672 118.432 17.1935 118.415 18.0197L118.383 28.5625H113.894V17.9111C113.914 17.3728 113.809 16.8371 113.586 16.3464C113.198 15.568 112.481 15.1788 111.433 15.1788C110.222 15.1788 109.387 15.681 108.927 16.6853C108.675 17.2925 108.554 17.9454 108.571 18.6022V28.5625H104.148V18.6022C104.148 17.6093 104.047 16.8892 103.84 16.4391C103.463 15.6289 102.743 15.2247 101.681 15.2265C100.43 15.2265 99.5894 15.6307 99.1593 16.4391C98.9231 16.8998 98.8036 17.5828 98.8036 18.4936V28.5546H94.3461V11.8666H98.6098V14.2971C99.0126 13.5965 99.5324 12.9697 100.147 12.4438C101 11.7872 102.104 11.4598 103.458 11.4615C104.741 11.4615 105.777 11.7431 106.566 12.3061C107.212 12.8419 107.709 13.5337 108.011 14.3157C108.509 13.4105 109.25 12.6615 110.151 12.1526C111.086 11.6844 112.12 11.4474 113.166 11.4615C113.916 11.4651 114.658 11.6125 115.351 11.8957Z" fill="white"/>
<path d="M133.375 12.179C134.558 12.7116 135.564 13.5706 136.274 14.6545C136.975 15.6913 137.429 16.8739 137.602 18.1123C137.738 19.2135 137.786 20.3237 137.745 21.4324H125.533C125.602 23.1092 126.187 24.2857 127.288 24.9617C128.017 25.3963 128.856 25.614 129.706 25.5892C130.583 25.6287 131.445 25.3577 132.141 24.824C132.514 24.5028 132.821 24.1115 133.043 23.6723H137.522C137.405 24.666 136.864 25.6739 135.897 26.6959C134.396 28.3144 132.294 29.1237 129.589 29.1237C127.439 29.1521 125.347 28.4237 123.682 27.0665C121.976 25.6951 121.123 23.4622 121.123 20.3681C121.123 17.4716 121.893 15.2503 123.433 13.7041C124.972 12.1579 126.972 11.3848 129.43 11.3848C130.787 11.3673 132.132 11.638 133.375 12.179ZM126.815 15.9572C126.158 16.6734 125.748 17.581 125.647 18.5465H133.203C133.123 17.3869 132.734 16.5043 132.034 15.8989C131.309 15.2882 130.382 14.9667 129.433 14.9961C128.307 14.9961 127.434 15.3147 126.815 15.9519V15.9572ZM134.618 4.99609L129.94 9.5844H126.77L129.725 4.99609H134.618Z" fill="white"/>
<path d="M149.291 11.4427L149.668 11.4665V15.9463C149.389 15.9171 149.137 15.896 148.93 15.8854C148.723 15.8748 148.54 15.8695 148.399 15.8695C146.629 15.8695 145.445 16.4422 144.847 17.5878C144.507 18.2338 144.337 19.2266 144.337 20.5663V28.562H139.927V11.8346H144.111V14.7469C144.787 13.6314 145.378 12.8689 145.882 12.4594C146.702 11.7763 147.768 11.4339 149.081 11.4321C149.164 11.4348 149.233 11.4374 149.291 11.4427Z" fill="white"/>
<path d="M156.746 9.83776H152.299V5.80273H156.746V9.83776ZM152.299 11.8341H156.746V28.562H152.299V11.8341Z" fill="white"/>
<path d="M171.024 17.8345C170.95 17.2303 170.734 16.6522 170.392 16.148C169.898 15.4737 169.133 15.1357 168.096 15.134C166.614 15.134 165.601 15.8656 165.056 17.3288C164.735 18.3272 164.588 19.3732 164.623 20.4211C164.59 21.4239 164.736 22.4245 165.056 23.3758C165.587 24.7666 166.574 25.462 168.019 25.462C169.047 25.462 169.777 25.1858 170.209 24.6334C170.672 24.0058 170.948 23.2606 171.005 22.4835H175.487C175.369 23.8529 174.867 25.1613 174.037 26.259C172.662 28.174 170.627 29.1307 167.931 29.1289C165.235 29.1271 163.241 28.3311 161.947 26.7408C160.674 25.1523 160.038 23.0828 160.038 20.5323C160.038 17.6624 160.742 15.4296 162.149 13.834C163.556 12.2384 165.496 11.4442 167.971 11.4512C170.077 11.4512 171.8 11.9225 173.14 12.865C174.48 13.8075 175.276 15.4693 175.529 17.8503L171.024 17.8345Z" fill="white"/>
<path d="M185.164 18.3873C185.762 18.3346 186.351 18.2056 186.916 18.0034C187.545 17.7386 187.861 17.3229 187.861 16.759C187.861 16.0759 187.619 15.6028 187.136 15.3398C186.653 15.0768 185.945 14.9471 185.012 14.9506C183.961 14.9506 183.217 15.2057 182.78 15.7158C182.439 16.1636 182.224 16.6935 182.156 17.2514H177.919C178.011 15.7881 178.423 14.5861 179.156 13.6453C180.32 12.1732 182.319 11.4363 185.153 11.4345C186.855 11.4023 188.54 11.7763 190.067 12.5254C191.497 13.2508 192.213 14.6214 192.215 16.6372V24.3154C192.215 24.8449 192.225 25.49 192.244 26.2508C192.235 26.6551 192.326 27.0554 192.51 27.4158C192.676 27.6392 192.9 27.8138 193.158 27.9215V28.5675H188.379C188.258 28.2595 188.169 27.9402 188.113 27.6143C188.06 27.3204 188.02 26.9815 187.988 26.6029C187.374 27.2619 186.664 27.8258 185.883 28.2763C184.898 28.8268 183.784 29.1055 182.655 29.0838C181.129 29.0838 179.868 28.6513 178.872 27.7864C177.875 26.9215 177.378 25.6966 177.38 24.1115C177.38 22.0534 178.181 20.5645 179.782 19.6449C180.658 19.1436 181.95 18.7862 183.656 18.5726L185.164 18.3873ZM187.845 20.4286C187.577 20.5967 187.292 20.7377 186.996 20.8496C186.612 20.9824 186.218 21.0825 185.817 21.1488L184.819 21.3341C184.119 21.4237 183.438 21.6258 182.804 21.9325C182.473 22.1123 182.2 22.3817 182.016 22.7097C181.832 23.0376 181.746 23.4107 181.765 23.7858C181.765 24.5325 181.977 25.0726 182.4 25.4062C182.841 25.744 183.384 25.9198 183.94 25.904C184.89 25.9095 185.818 25.6198 186.595 25.0752C187.402 24.5228 187.821 23.5149 187.853 22.0516L187.845 20.4286Z" fill="white"/>
<path d="M75.2257 52.5097C75.369 53.5105 75.6487 54.2579 76.0646 54.7521C76.8239 55.6523 78.1257 56.1024 79.9699 56.1024C80.8799 56.1295 81.7882 56.0088 82.6593 55.745C83.9655 55.2896 84.6186 54.4441 84.6186 53.2086C84.6288 52.8677 84.5445 52.5307 84.3749 52.2345C84.2053 51.9384 83.9571 51.6946 83.6575 51.5301C83.0204 51.1435 82.0053 50.802 80.6124 50.5055L78.239 49.976C75.9027 49.4606 74.2983 48.9011 73.4257 48.2974C71.9478 47.2878 71.208 45.709 71.2062 43.561C71.1869 42.6381 71.3714 41.7224 71.7467 40.8787C72.122 40.0349 72.6789 39.2839 73.3779 38.6789C74.8239 37.3816 76.9478 36.7329 79.7496 36.7329C82.0876 36.7329 84.0841 37.3445 85.739 38.5677C87.3938 39.7908 88.2602 41.5647 88.3381 43.8892H83.931C83.8514 42.5743 83.262 41.6388 82.1629 41.0828C81.3071 40.6916 80.3719 40.504 79.431 40.5348C78.2204 40.5348 77.254 40.7722 76.5319 41.247C76.1909 41.4532 75.9107 41.7458 75.72 42.0951C75.5292 42.4443 75.4347 42.8378 75.446 43.2353C75.4345 43.5985 75.5287 43.9572 75.7171 44.2682C75.9056 44.5792 76.1802 44.8292 76.508 44.988C76.9646 45.2439 77.9381 45.5457 79.4283 45.8934L83.2779 46.7989C84.9664 47.196 86.2319 47.7255 87.0744 48.3874C88.3806 49.4182 89.0345 50.907 89.0363 52.8539C89.0524 53.8058 88.8514 54.749 88.4485 55.6121C88.0457 56.4753 87.4514 57.2359 86.7106 57.8365C85.1637 59.1692 82.9761 59.8354 80.1478 59.8354C77.2593 59.8354 74.9876 59.185 73.3328 57.8842C71.6779 56.5834 70.8505 54.7945 70.8505 52.5176L75.2257 52.5097Z" fill="white"/>
<path d="M105.443 57.286C104.077 58.9699 101.998 59.8127 99.2071 59.8145C96.416 59.8162 94.3372 58.9734 92.9708 57.286C91.6009 55.6004 90.916 53.5706 90.916 51.1967C90.8703 48.9968 91.5972 46.8503 92.9708 45.1285C94.3407 43.4181 96.4195 42.563 99.2071 42.563C101.995 42.563 104.073 43.4181 105.443 45.1285C106.817 46.8503 107.544 48.9968 107.498 51.1967C107.498 53.5689 106.813 55.5987 105.443 57.286ZM102.05 54.9456C102.714 54.0631 103.047 52.8134 103.049 51.1967C103.049 49.5737 102.714 48.3294 102.05 47.453C101.387 46.5767 100.434 46.1292 99.1939 46.1292C97.954 46.1292 96.9983 46.5661 96.3266 47.453C95.6549 48.3399 95.3231 49.5711 95.3231 51.1967C95.3231 52.8223 95.6576 54.0666 96.3266 54.9456C96.9956 55.8246 97.9514 56.2694 99.1939 56.2694C100.436 56.2694 101.384 55.8246 102.05 54.9456Z" fill="white"/>
<path d="M114.865 59.2642H110.617V37.3843H114.865V59.2642Z" fill="white"/>
<path d="M123.366 41.1543H119.065V37.249H123.366V41.1543ZM119.065 43.0844H123.366V59.2642H119.065V43.0844Z" fill="white"/>
<path d="M136.078 43.3438C136.839 43.773 137.478 44.3879 137.936 45.131V37.4131H142.237V59.2641H138.117V57.0215C137.613 57.8808 136.902 58.6008 136.049 59.1158C135.158 59.5777 134.163 59.8029 133.16 59.7698C131.265 59.7698 129.672 59.0055 128.381 57.4769C127.091 55.9483 126.443 53.9855 126.438 51.5885C126.438 48.8297 127.075 46.6578 128.349 45.0727C129.624 43.4877 131.328 42.6934 133.463 42.6898C134.377 42.6759 135.279 42.9014 136.078 43.3438ZM137.121 54.869C137.744 53.9864 138.057 52.8338 138.058 51.4112C138.058 49.4343 137.557 48.0222 136.553 47.1749C135.956 46.6677 135.195 46.3939 134.411 46.4045C133.172 46.4045 132.261 46.8722 131.679 47.8077C131.096 48.7432 130.806 49.9038 130.808 51.2894C130.808 52.7826 131.103 53.9776 131.695 54.8743C132.286 55.7709 133.181 56.2184 134.381 56.2166C135.59 56.2096 136.503 55.7603 137.121 54.869Z" fill="white"/>
<path d="M152.522 49.4228C153.1 49.3718 153.669 49.2472 154.216 49.0522C154.826 48.7874 155.132 48.3929 155.132 47.8475C155.132 47.1856 154.897 46.7284 154.428 46.476C153.961 46.2113 153.276 46.0974 152.371 46.0974C151.355 46.0974 150.635 46.3445 150.212 46.8387C149.882 47.2711 149.674 47.7841 149.61 48.3241H145.516C145.603 46.9076 146.004 45.7453 146.711 44.8345C147.836 43.4101 149.77 42.6979 152.511 42.6979C154.158 42.6687 155.788 43.0318 157.266 43.757C158.652 44.463 159.344 45.7868 159.342 47.7284V55.1416C159.342 55.6553 159.342 56.2801 159.374 57.0108C159.363 57.4019 159.449 57.7896 159.626 58.1387C159.787 58.3547 160.002 58.5239 160.25 58.6285V59.2533H155.636C155.516 58.9561 155.427 58.6473 155.371 58.332C155.32 58.046 155.28 57.7204 155.251 57.3524C154.657 57.9902 153.971 58.5362 153.215 58.9727C152.265 59.5081 151.189 59.7822 150.098 59.767C148.622 59.767 147.403 59.3487 146.44 58.512C145.477 57.6754 144.995 56.4901 144.995 54.9563C144.995 52.9688 145.77 51.5285 147.318 50.6354C148.168 50.15 149.418 49.8041 151.067 49.5976L152.522 49.4228ZM155.116 51.3953C154.855 51.5582 154.58 51.6957 154.293 51.8056C153.922 51.933 153.541 52.0296 153.154 52.0942L152.188 52.2716C151.511 52.3593 150.853 52.5551 150.239 52.8514C149.919 53.0263 149.656 53.2874 149.478 53.6049C149.3 53.9225 149.216 54.2835 149.235 54.6465C149.235 55.3702 149.44 55.8927 149.849 56.2139C150.275 56.5404 150.801 56.7106 151.338 56.6958C152.254 56.7014 153.149 56.4239 153.9 55.9015C154.68 55.372 155.087 54.3924 155.116 52.9891V51.3953Z" fill="white"/>
<path d="M172.065 42.7057L172.428 42.7269V47.0611C172.163 47.032 171.921 47.0108 171.714 47.0029C171.507 46.9949 171.337 46.9869 171.207 46.9869C169.501 46.9869 168.355 47.5412 167.769 48.6497C167.44 49.2745 167.276 50.2348 167.278 51.5303V59.2642H163.009V43.0843H167.057V45.9041C167.713 44.8265 168.281 44.0878 168.77 43.6933C169.565 43.0296 170.596 42.6978 171.865 42.6978C171.942 42.6978 172.009 42.7004 172.065 42.7057Z" fill="white"/>
<path d="M179.275 41.1543H174.974V37.249H179.275V41.1543ZM174.974 43.0844H179.275V59.2642H174.974V43.0844Z" fill="white"/>
<path d="M189.823 49.4226C190.401 49.3719 190.971 49.2474 191.517 49.052C192.128 48.7872 192.433 48.3927 192.433 47.8473C192.433 47.1855 192.198 46.7283 191.729 46.4759C191.262 46.2112 190.577 46.0973 189.672 46.0973C188.654 46.0973 187.935 46.3444 187.513 46.8386C187.184 47.2716 186.976 47.7842 186.911 48.3239H182.804C182.891 46.9075 183.292 45.7452 183.998 44.8345C185.124 43.4101 187.058 42.6979 189.799 42.6979C191.446 42.6687 193.076 43.0318 194.554 43.7569C195.94 44.4629 196.632 45.7867 196.63 47.7282V55.1413C196.63 55.6549 196.63 56.2797 196.662 57.0104C196.655 57.4026 196.746 57.7904 196.928 58.1383C197.088 58.3538 197.304 58.5228 197.551 58.6281V59.2529H192.924C192.804 58.9556 192.715 58.6469 192.659 58.3316C192.608 58.0456 192.568 57.72 192.539 57.352C191.945 57.9897 191.258 58.5358 190.503 58.9723C189.554 59.5073 188.479 59.7814 187.389 59.7665C185.911 59.7665 184.69 59.3482 183.728 58.5116C182.765 57.675 182.283 56.4898 182.283 54.956C182.283 52.9686 183.058 51.5283 184.606 50.6352C185.456 50.1498 186.705 49.8039 188.355 49.5974L189.823 49.4226ZM192.417 51.395C192.157 51.558 191.881 51.6954 191.594 51.8054C191.223 51.9328 190.842 52.0293 190.455 52.094L189.489 52.2714C188.812 52.359 188.154 52.5548 187.54 52.8512C187.22 53.026 186.957 53.2871 186.779 53.6046C186.602 53.9222 186.517 54.2832 186.536 54.6462C186.536 55.3699 186.741 55.8923 187.15 56.2135C187.576 56.54 188.102 56.7102 188.639 56.6954C189.555 56.701 190.45 56.4235 191.201 55.9011C191.982 55.3716 192.388 54.392 192.417 52.9889V51.395Z" fill="white"/>
<path d="M63.4803 22.4817C63.4012 22.3003 63.2843 22.1378 63.1375 22.005C62.5103 21.425 60.7826 20.7532 53.1356 21.5971C52.1521 21.7014 51.4141 21.8652 50.0647 22.1583C49.5735 22.2626 48.9996 22.3888 48.3014 22.5359C47.5384 22.6955 46.7879 22.8489 46.0082 23.0012C44.2418 23.3475 42.4544 23.6824 40.7057 23.9963H40.6827L40.6315 24.0099C40.5863 24.0182 40.5405 24.0227 40.4946 24.0235C40.2563 24.0288 40.0253 23.9418 39.8499 23.7807C39.6745 23.6197 39.5684 23.3971 39.5539 23.1597C39.5957 22.3179 39.6448 21.45 39.6992 20.5779C39.7535 19.7059 39.8142 18.8797 39.8769 18.0452C40.0086 16.299 40.1904 12.1973 40.4235 5.85184V5.80594V5.75691C40.2709 2.87887 39.8863 0.196942 38.124 0.0331675C37.1039 -0.192152 35.142 0.526576 29.9712 8.68085L29.4151 9.57483C29.4151 9.57483 27.4511 12.9651 26.4759 14.6529C25.3021 16.6839 24.1294 18.7472 22.988 20.7876L22.9493 20.8638C22.9041 20.963 22.8461 21.0559 22.7769 21.1402C22.7282 21.202 22.6747 21.2599 22.6169 21.3134L22.5521 21.3697C22.4987 21.4103 22.4413 21.4452 22.3807 21.474L22.3682 21.4876C22.3188 21.5111 22.2669 21.5289 22.2135 21.5408L22.1487 21.5564C21.9826 21.5773 21.8139 21.5587 21.6564 21.5022C21.607 21.4865 21.5588 21.4673 21.5121 21.4448L20.9895 21.1976L19.2398 20.4382C17.6249 19.7486 16.0863 19.1238 14.5362 18.5261C12.9684 17.9221 9.75117 16.7705 9.71146 16.7527L9.08432 16.5441C7.98787 16.1675 6.94054 15.8243 5.96848 15.5176C5.02623 15.2309 4.06914 14.9951 3.10141 14.8114C2.41782 14.6831 1.27434 14.4693 0.524907 15.2871C0.278848 15.5684 0.113456 15.9108 0.0461908 16.2781C-0.0886442 16.9311 0.0984524 17.4558 0.264644 17.919C0.342048 18.1408 0.434234 18.3572 0.540586 18.5668C1.17007 19.7902 1.88759 20.9665 2.68749 22.0863C3.69823 23.4424 4.56891 24.4105 4.65985 24.5169C6.81616 26.9015 9.24319 29.3153 10.8539 30.9103C11.3567 31.4079 11.7758 31.8241 12.0779 32.1318C13.698 33.7811 15.3327 35.4365 16.9382 37.0524L17.0427 37.1452C17.232 37.2973 17.3564 37.5154 17.3908 37.7554C17.4096 37.911 17.3876 38.0688 17.327 38.2134L17.1316 38.6119C16.9779 38.9248 16.8243 39.244 16.6633 39.5559C16.4114 40.0452 15.5689 41.8508 14.0168 45.3506L13.1701 47.319C13.0719 47.5495 12.8283 48.1285 12.6862 48.5207L12.6172 48.7064L12.3486 49.35C12.2556 49.5587 12.173 49.736 12.0883 49.906L12.0068 50.0854C11.5978 51.0486 11.1901 52.0062 10.7839 52.9583C10.7013 53.1544 10.6187 53.3578 10.5382 53.5654C10.4578 53.773 10.3877 53.9576 10.3198 54.1475L10.0856 54.7952L10.1118 54.8213C10.0261 55.1051 9.94245 55.3878 9.86301 55.6642C9.42506 57.1872 9.13135 58.1938 9.81284 59.0398C10.0169 59.2917 10.2801 59.4895 10.579 59.6156C10.8603 59.7459 11.1667 59.8132 11.4769 59.8128C12.2367 59.8128 13.1273 59.4581 14.8812 58.4567C15.9264 57.86 16.2138 57.666 16.24 57.6483C19.5628 55.4086 21.2299 54.2852 21.9469 53.75C23.9716 52.2375 26.5982 50.3222 30.2158 47.7196L30.9015 47.1761L30.9328 47.1532C31.0579 47.0707 31.2016 47.0205 31.3509 47.0071H31.3666C31.5011 46.9968 31.6363 47.0159 31.7627 47.0631C31.889 47.1103 32.0036 47.1845 32.0982 47.2804C34.1208 49.084 36.2081 50.8834 38.3038 52.6276L38.8515 53.0803C40.4298 54.3853 42.0144 55.6642 43.5738 56.8878C46.3322 58.9261 48.0736 59.8357 49.2181 59.8357C49.509 59.8402 49.7965 59.7721 50.0543 59.6375C50.3053 59.5396 50.5229 59.372 50.6814 59.1546C50.9762 58.7613 51.666 57.8391 50.1191 52.8748L50.1118 52.854C49.2526 50.4651 48.3412 48.2224 47.4015 46.1882C46.3688 43.9476 44.6745 40.2423 44.4748 39.7145L44.4686 39.6957C44.4435 39.6248 44.4163 39.5538 44.385 39.4871C44.3753 39.2727 44.3967 39.058 44.4487 38.8497C44.5208 38.566 44.6442 38.3667 44.8104 38.2593C44.8417 38.2405 44.8668 38.2269 44.8783 38.2217L44.964 38.1769C47.483 36.7165 49.9926 35.159 52.4238 33.5609C54.6909 32.0713 56.9486 30.5035 59.1332 28.9033L59.1509 28.8897C63.0392 25.7645 64.2956 23.9045 63.4803 22.4817ZM44.8908 55.1614C43.3627 53.9618 41.8001 52.7016 40.2573 51.4248L40.0995 51.2871L39.995 51.2099L39.6898 50.9575C37.6286 49.2405 35.5653 47.4619 33.571 45.6886C33.0813 45.22 32.4498 44.9265 31.7753 44.8541C31.6582 44.7111 31.5422 44.5693 31.4272 44.4243L31.3917 44.3794C30.9579 43.8297 30.5314 43.257 30.1238 42.6781L30.083 42.6207C29.9325 42.4047 29.7862 42.1878 29.6409 41.9708L29.5792 41.879C29.5217 41.7924 29.4632 41.7048 29.4057 41.6161C29.3252 41.4941 29.2479 41.3699 29.1705 41.2469L29.0838 41.1081C28.4671 40.1244 27.8995 39.1178 27.3926 38.1091L27.4166 38.0997C27.5783 38.0392 27.74 37.9804 27.9016 37.9234C28.0218 37.8806 28.142 37.8389 28.2612 37.7993C28.418 37.745 28.5748 37.6949 28.7305 37.6428L29.0932 37.528C29.2479 37.479 29.4015 37.4331 29.5552 37.3872L29.6064 37.3716L29.92 37.2808L30.3778 37.1525L30.4771 37.1243L30.7353 37.0545C30.891 37.0117 31.0488 36.972 31.2004 36.9314L31.5411 36.8427C31.7094 36.7989 31.8777 36.7572 32.0449 36.7154L32.3418 36.6414L33.1194 36.4505L33.8699 36.2658L34.0068 36.2314L34.7479 36.0447L34.8786 36.0113C35.1231 35.948 35.367 35.883 35.6102 35.8162L35.7409 35.7808C35.9841 35.7112 36.2262 35.6417 36.4673 35.5721L36.5948 35.5335C36.8394 35.4598 37.0833 35.3833 37.3265 35.3041L37.4415 35.2654C37.7049 35.1778 37.9463 35.0933 38.1805 35.0068L38.2735 34.9723C38.5505 34.868 38.7961 34.771 39.0334 34.674L39.0908 34.649C39.2372 34.5885 39.3762 34.5279 39.5089 34.4685C39.5278 34.4925 39.5455 34.5165 39.5643 34.5394C39.6584 34.6632 39.7521 34.7884 39.8455 34.915C39.903 34.9921 39.9605 35.0693 40.0169 35.1476C40.111 35.2759 40.203 35.4063 40.2939 35.5367L40.3441 35.6066L40.4538 35.763C40.55 35.9021 40.6444 36.0412 40.7371 36.1803L40.7935 36.2648C40.8207 36.3055 40.8479 36.3451 40.874 36.3858C40.9859 36.5558 41.0946 36.7279 41.2022 36.9011L41.2785 37.0221C41.4123 37.2377 41.5433 37.455 41.6715 37.6741L41.7405 37.7961C41.845 37.9735 41.9443 38.1508 42.0436 38.3313C42.0677 38.373 42.0896 38.4158 42.1126 38.4585L42.1586 38.5441L42.2631 38.7454C42.1868 39.267 42.1826 39.9461 42.3969 40.3435C42.4079 40.3658 42.4173 40.3888 42.4251 40.4123L42.4471 40.4718C42.7795 41.348 45.3957 47.0175 45.4302 47.0906C46.3416 49.0725 47.2259 51.2412 48.0569 53.5487C48.8052 55.9552 48.9265 57.1048 48.9244 57.6034C48.4614 57.4626 47.3189 56.9546 44.8908 55.1614ZM8.38192 18.6043C10.1891 19.2177 11.9953 19.8717 13.7523 20.5477C15.2909 21.1412 16.8023 21.7557 18.3691 22.4254L20.6383 23.431L20.6968 23.457L21.1777 23.6657L21.254 23.675L21.4181 23.6928V23.7449V23.7804C21.4254 23.9285 21.4327 24.0777 21.4421 24.2258C21.4515 24.374 21.4599 24.5012 21.4703 24.6431C21.4808 24.785 21.4912 24.9404 21.5038 25.0885C21.5163 25.2366 21.5278 25.3618 21.5403 25.4985C21.5529 25.6351 21.5696 25.7968 21.5853 25.946C21.601 26.0951 21.6156 26.2162 21.6313 26.3518C21.647 26.4874 21.6668 26.6501 21.6856 26.7993C21.7045 26.9484 21.7212 27.0684 21.74 27.2019C21.7609 27.3507 21.7828 27.4999 21.8058 27.6494C21.8257 27.783 21.8466 27.9165 21.8686 28.049C21.8926 28.1981 21.9187 28.3473 21.9438 28.4965C21.9679 28.629 21.9908 28.7604 22.0149 28.8929C22.0431 29.042 22.0724 29.1922 22.1016 29.3404C22.1278 29.4718 22.1539 29.6022 22.1811 29.7326C22.2124 29.8814 22.2448 30.0306 22.2783 30.1801L22.2846 30.2093C22.3117 30.3303 22.3379 30.4503 22.3661 30.5702C22.4006 30.7194 22.4372 30.8675 22.4706 31.0167L22.4884 31.0876C22.5135 31.192 22.5396 31.2963 22.5668 31.4006C22.6023 31.5397 22.6389 31.6788 22.6765 31.8179L22.7016 31.9086C22.7298 32.0129 22.7591 32.1235 22.7884 32.2289C22.8281 32.3686 22.8688 32.5074 22.9096 32.6461L22.9462 32.7702C22.9734 32.8641 23.0005 32.958 23.0298 33.0519C23.0674 33.176 23.1061 33.2991 23.1458 33.4233L23.2106 33.6256C23.2368 33.708 23.2618 33.7894 23.289 33.8697C23.3329 34.0053 23.38 34.1399 23.4259 34.2745L23.4928 34.4695C23.5179 34.5415 23.542 34.6135 23.5671 34.6834C23.6235 34.8419 23.682 34.9963 23.7406 35.159L23.7991 35.3176C23.82 35.376 23.842 35.4344 23.8639 35.4918C23.9656 35.7603 24.0702 36.028 24.1775 36.295C24.2465 36.4651 24.3196 36.6382 24.3928 36.8166L24.4451 36.9387L24.4639 36.9814H24.4524L24.3698 37.02C24.3102 37.0471 24.2527 37.0764 24.1942 37.1045L24.097 37.1515C23.9287 37.2339 23.7615 37.3163 23.5932 37.4018C23.4688 37.4665 23.2943 37.5572 23.0873 37.6689C22.9765 37.7283 22.8657 37.7888 22.757 37.8493C22.5176 37.9818 22.2877 38.1122 22.0745 38.2395L22.018 38.2718C21.9187 38.3313 21.7964 38.4043 21.6532 38.4919C20.5376 39.1845 19.4713 39.9534 18.4621 40.7931C18.5144 40.6825 18.5562 40.598 18.5865 40.5396C18.7496 40.2267 18.9064 39.9012 19.0632 39.5799L19.2534 39.1908C19.2795 39.1376 19.3046 39.0865 19.3297 39.0239C19.5326 38.5362 19.6047 38.0041 19.5387 37.4801C19.4362 36.6964 19.0404 35.9806 18.4308 35.4762C16.8065 33.8395 15.1906 32.2017 13.6227 30.6068C13.3186 30.2938 12.8973 29.8766 12.3946 29.3811L12.3799 29.3654C10.8016 27.7965 8.40387 25.4181 6.2716 23.0627C6.18275 22.9636 5.37479 22.0613 4.4278 20.7897C3.69687 19.7594 3.03987 18.6788 2.46172 17.5559C2.40339 17.4381 2.35208 17.3169 2.30807 17.1929C2.27672 17.1053 2.22968 16.9739 2.20355 16.8696C2.31644 16.881 2.4774 16.9029 2.70213 16.9447C3.58948 17.1121 4.46704 17.3276 5.33089 17.5904C5.92144 17.7761 6.55172 17.9805 7.2123 18.1985V18.2048L8.38192 18.6043ZM37.708 17.9033C37.6808 18.2569 37.6098 19.2125 37.5324 20.4476C37.476 21.3374 37.4279 22.2313 37.3829 23.1024V23.143V23.1837C37.4039 23.9899 37.7393 24.756 38.3177 25.319C38.8962 25.8821 39.672 26.1976 40.48 26.1984H40.5437C40.7275 26.1951 40.9105 26.1745 41.0904 26.1369L41.1667 26.1191C42.9039 25.8062 44.6734 25.4745 46.4284 25.1302L46.5569 25.1052L46.5413 25.1313L46.4817 25.2356C46.3855 25.4025 46.258 25.6226 46.1253 25.8354C46.0824 25.9032 46.0396 25.9689 45.9957 26.0357L45.9329 26.1317C45.8242 26.3006 45.7131 26.4676 45.5995 26.6324C45.5284 26.7367 45.4553 26.8347 45.3831 26.9349C45.2689 27.0914 45.1535 27.2454 45.0372 27.397C44.9619 27.4951 44.8856 27.5921 44.8083 27.688C44.687 27.8393 44.5616 27.9874 44.4362 28.1345L44.3829 28.196C44.3243 28.2649 44.2658 28.3327 44.2062 28.4047C44.0599 28.5684 43.9083 28.7281 43.7787 28.8626L43.6951 28.9513C43.6554 28.993 43.6157 29.0358 43.5749 29.0765C43.3408 29.3112 43.1254 29.5188 42.9143 29.7097C42.7826 29.8272 42.6506 29.9426 42.5182 30.056L42.398 30.1551C42.3039 30.2333 42.2098 30.3115 42.1137 30.3877L42.0185 30.4586L41.9715 30.4941C41.8837 30.5629 41.7949 30.6318 41.7039 30.7027L41.5869 30.7883L41.5482 30.8164C41.4604 30.8801 41.3715 30.9437 41.2827 31.0052L41.1228 31.1096C41.0329 31.1711 40.9409 31.2306 40.8489 31.2911L40.689 31.3954C40.5939 31.4559 40.4977 31.5143 40.4005 31.5717L40.3807 31.5842L40.2458 31.6645L40.0922 31.7521C40.0326 31.6822 39.973 31.6124 39.9124 31.5435C39.7807 31.3943 39.648 31.2473 39.5142 31.0991L39.441 31.0188L39.2706 30.8331C39.1191 30.6704 38.9654 30.5108 38.8107 30.3512L38.7355 30.273C38.6937 30.2291 38.6519 30.1864 38.609 30.1436C38.3707 29.9016 38.148 29.6825 37.9286 29.4739C37.7739 29.3268 37.615 29.1818 37.4634 29.0399L37.3589 28.945L37.3025 28.8939C37.1979 28.8021 37.0986 28.7103 36.9972 28.6206L36.852 28.4944L36.8007 28.4506L36.5269 28.2159L36.3356 28.0552L36.3158 28.0385C36.229 27.9666 36.1423 27.8946 36.0555 27.8247C35.9687 27.7548 35.9092 27.7058 35.8349 27.6473L35.581 27.446L35.3573 27.2729L35.1054 27.0809L34.8733 26.9119L34.6246 26.7294L34.6026 26.7137L34.3936 26.5656C34.3183 26.5114 34.2431 26.4613 34.1678 26.4071L34.0696 26.3392L33.9159 26.2349L33.7319 26.1108L33.5846 26.0065L33.4393 25.9095L33.2302 25.7759L33.1696 25.7363L32.7735 25.4849L32.7066 25.4432L32.509 25.3211L32.346 25.2231L32.0324 25.0374L31.8516 24.9331L31.747 24.8757L31.5579 24.7714L31.3175 24.6368L31.0896 24.5117L30.8492 24.3823L30.6234 24.2634C30.544 24.2206 30.4645 24.1799 30.3851 24.1392L30.1593 24.0245C30.0809 23.9849 30.0026 23.9452 29.9252 23.9077L29.7162 23.8034L29.6503 23.771L29.4758 23.6782L29.2468 23.5739L29.0242 23.4695L28.8267 23.3809L28.5758 23.2682L28.28 23.141L28.1013 23.0648C27.9664 23.0085 27.8337 22.9521 27.6999 22.8989L27.4992 22.8186L27.263 22.7247L27.0728 22.6517L26.8282 22.5589L26.6609 22.4973L26.4007 22.4024L26.2387 22.345L25.9774 22.2543L25.8248 22.2021L25.553 22.1114L25.4203 22.0676L25.1318 21.9758L25.0272 21.9413L24.8684 21.8934L24.907 21.8141C26.0568 19.7685 27.2139 17.7239 28.3563 15.7377C29.4873 13.7808 30.6558 11.7873 31.8359 9.81058L31.9488 9.6176C35.4702 4.10144 37.1655 2.65355 37.7331 2.28741C37.8805 2.65564 38.1345 3.59238 38.2557 5.82159C38.0195 12.118 37.8376 16.1821 37.708 17.9033ZM24.7722 24.1351L25.7338 24.4647C25.8122 24.4929 25.8906 24.521 25.97 24.5513L26.1603 24.6222L26.3829 24.7067L26.5763 24.7829L26.8021 24.8726L26.9808 24.9446L27.2243 25.0489L27.4072 25.1271L27.6539 25.2314L27.8389 25.3128L28.0877 25.4244L28.2727 25.5099L28.5246 25.6278L28.7127 25.7175L28.9678 25.8427L29.1559 25.9355L29.412 26.0659L29.6033 26.1703L29.8594 26.3059L30.0517 26.4102L30.3099 26.552L30.5043 26.6564L30.7624 26.8045L30.9579 26.9192L31.2171 27.0736L31.4136 27.1925L31.6749 27.3553L31.8704 27.4784L32.1338 27.6484L32.3271 27.7757L32.5655 27.9353L32.786 28.0865C32.8686 28.1428 32.9512 28.2013 33.0327 28.2586L33.2417 28.4078L33.5093 28.6029L33.6995 28.7437C33.7873 28.8084 33.8741 28.8762 33.9682 28.9471L34.1574 29.0921C34.2368 29.1537 34.3152 29.2162 34.3936 29.2788L34.6141 29.4541L34.8326 29.6345L35.0688 29.8296L35.3082 30.0382L35.5172 30.2218C35.6029 30.2969 35.6886 30.3741 35.7743 30.4513L35.9687 30.6255C36.1182 30.7622 36.2677 30.902 36.4161 31.0428C36.6042 31.2222 36.8039 31.4183 37.0276 31.6436L37.1509 31.7709L37.2209 31.8429C37.3589 31.9858 37.4969 32.1287 37.6328 32.2747L37.8418 32.5001L38.0508 32.7296L38.0163 32.7431L37.9035 32.789C37.6944 32.8725 37.476 32.9549 37.2606 33.0321L37.176 33.0613C36.738 33.2167 36.2813 33.3648 35.7816 33.513L35.7064 33.5349C35.4796 33.6016 35.2528 33.6653 35.0259 33.7279L34.912 33.7581C34.6862 33.82 34.4594 33.8801 34.2316 33.9386L34.1134 33.9688L33.4205 34.143L32.5937 34.3517L31.7836 34.5509L31.562 34.6062L30.9569 34.7585L30.6516 34.8388C30.474 34.8847 30.2973 34.9306 30.1186 34.9796L29.8959 35.0401L29.7726 35.0746C29.6054 35.1215 29.4381 35.1674 29.2698 35.2164L28.997 35.2967L28.8988 35.326C28.7347 35.375 28.5716 35.424 28.4065 35.4762C28.2894 35.513 28.1723 35.5506 28.0553 35.5888L28.0197 35.6003C27.8567 35.6525 27.6933 35.7067 27.5295 35.763C27.3978 35.8079 27.2651 35.8548 27.1323 35.9018C26.9682 35.9602 26.802 36.0196 26.6369 36.0822L26.4707 36.1448C26.4707 36.1354 26.4634 36.126 26.4592 36.1177L26.3934 35.9633C26.3254 35.8037 26.2585 35.6452 26.1958 35.4887C26.0913 35.2373 25.9941 34.9838 25.8979 34.7303C25.876 34.6719 25.8551 34.6135 25.8331 34.5561L25.7547 34.3475C25.7087 34.2213 25.6617 34.0971 25.6178 33.9699C25.5906 33.8948 25.5655 33.8196 25.5394 33.7445L25.4715 33.5453C25.4318 33.4306 25.392 33.3158 25.3544 33.2021C25.3272 33.1176 25.3001 33.0331 25.2739 32.9486L25.2123 32.7536C25.1767 32.6492 25.1422 32.5366 25.1077 32.4291C25.0816 32.3426 25.0555 32.2549 25.0304 32.1684L24.9698 31.9597C24.9394 31.8554 24.9091 31.7511 24.8799 31.6468C24.8506 31.5425 24.8287 31.4601 24.8036 31.3662L24.7461 31.1523C24.721 31.0564 24.6949 30.9604 24.6698 30.8644C24.6447 30.7684 24.6175 30.6558 24.5924 30.5515L24.5632 30.4336C24.5349 30.3157 24.5057 30.1989 24.4785 30.081C24.4513 29.9631 24.4294 29.864 24.4053 29.7556L24.3897 29.6857C24.3604 29.5542 24.3311 29.4217 24.3039 29.2893C24.2799 29.1756 24.258 29.0629 24.235 28.9492L24.2161 28.8532C24.1921 28.7343 24.1691 28.6143 24.1472 28.4954C24.1252 28.3765 24.0991 28.2305 24.0761 28.098C24.0531 27.9655 24.0301 27.8309 24.0081 27.6974C23.9862 27.5639 23.9663 27.4314 23.9465 27.2989C23.9266 27.1665 23.9068 27.0288 23.8869 26.8942C23.867 26.7596 23.8514 26.6292 23.8346 26.4968C23.8179 26.3643 23.8001 26.2245 23.7845 26.0889C23.7688 25.9533 23.7542 25.825 23.7406 25.6925C23.727 25.56 23.7123 25.4171 23.6998 25.2752C23.6873 25.1334 23.6758 25.0113 23.6643 24.8788C23.6528 24.7464 23.6423 24.6024 23.6329 24.4616C23.6235 24.3208 23.6141 24.1977 23.6057 24.0652L23.5901 23.7846L24.2036 23.964L24.3792 24.0182L24.5788 24.0808L24.7722 24.1351ZM19.4572 42.8074C20.6249 41.8155 21.8683 40.916 23.1761 40.1171L23.195 40.1057C23.358 40.0086 23.5232 39.9158 23.6873 39.823C24.0729 39.607 24.4252 39.4224 24.6499 39.3014L24.8422 39.2054C25.0043 39.1251 25.1778 39.0416 25.3649 38.954C25.9335 40.0744 26.5711 41.1937 27.264 42.2921C27.3477 42.4256 27.4327 42.5595 27.5191 42.6937L27.5849 42.798C27.6132 42.8429 27.6414 42.8877 27.6706 42.9315C27.7166 43.0025 27.7647 43.0724 27.8117 43.1402L27.8964 43.2643C28.3009 43.8683 28.7326 44.4764 29.1873 45.0721L29.3597 45.2984L29.5165 45.5008L28.9124 45.9796C25.2927 48.5823 22.665 50.4985 20.6425 52.01C19.9725 52.5108 18.3273 53.6196 15.0495 55.828L15.0202 55.8478C15.0024 55.8593 14.716 56.047 13.7983 56.5707C12.4082 57.3656 11.8354 57.5815 11.6033 57.6295C11.6681 57.2393 11.872 56.529 11.9493 56.2609C12.0883 55.7768 12.2284 55.3126 12.3768 54.8411V54.8276C12.4332 54.6701 12.4939 54.5146 12.5566 54.3498C12.6308 54.1589 12.706 53.9743 12.7803 53.798C13.1816 52.8487 13.5893 51.8943 13.9927 50.9554L14.0419 50.8438C14.2143 50.4985 14.3753 50.1418 14.5206 49.785C14.6251 49.5388 14.6857 49.3625 14.7233 49.2634C14.8091 49.0287 14.97 48.6313 15.1634 48.1734L15.8877 46.4918C16.9719 45.1656 18.1667 43.9334 19.4593 42.8084L19.4572 42.8074ZM43.9156 36.2773C43.8239 36.3232 43.7346 36.3737 43.6481 36.4286C43.601 36.4588 43.5561 36.4901 43.5111 36.5224C43.4411 36.4025 43.37 36.2846 43.3021 36.1699L43.2592 36.0989C43.2321 36.052 43.2038 36.0061 43.1756 35.9591C42.9896 35.6566 42.7952 35.351 42.5966 35.0527C42.5662 35.0057 42.5349 34.9598 42.5035 34.9139L42.4565 34.8451C42.2924 34.5999 42.121 34.3517 41.9464 34.1076L41.7959 33.8989C41.6949 33.7598 41.5935 33.6208 41.4917 33.4817L41.5252 33.4639L41.5012 33.4358C41.6349 33.3558 41.7677 33.2741 41.8994 33.1906L42.0415 33.0988C42.1544 33.0258 42.2673 32.9518 42.3771 32.8766C42.4251 32.8453 42.4711 32.812 42.5182 32.7796L42.5516 32.7567C42.6561 32.6868 42.7523 32.6159 42.8505 32.5481C42.9098 32.5056 42.9694 32.4618 43.0293 32.4166C43.1265 32.3436 43.2237 32.2695 43.3199 32.1944L43.3533 32.1694L43.4892 32.0651C43.5937 31.9827 43.6982 31.8982 43.7944 31.8147L43.8362 31.7793C43.8707 31.7521 43.9041 31.724 43.9407 31.6948C44.0881 31.5696 44.2344 31.4423 44.3797 31.3109C44.6389 31.0762 44.9023 30.8269 45.1553 30.5682C45.2086 30.5139 45.2598 30.4576 45.3131 30.4013L45.4041 30.3042L45.4605 30.2448C45.6026 30.0967 45.749 29.9423 45.8922 29.7816C45.9538 29.7107 46.0145 29.6387 46.074 29.5667L46.1786 29.4457L46.2622 29.3477C46.374 29.2173 46.4848 29.0858 46.5925 28.9502C46.6583 28.8668 46.7231 28.7813 46.7869 28.6957L46.9552 28.4735C47.0545 28.3421 47.1538 28.2117 47.2489 28.0771C47.3179 27.9812 47.3827 27.8841 47.4485 27.7861L47.5907 27.5775C47.6837 27.4408 47.7767 27.3052 47.8656 27.1602C47.9335 27.0559 47.9983 26.9464 48.0631 26.8379L48.1896 26.6292C48.2743 26.4895 48.36 26.3486 48.4405 26.2057C48.5063 26.0899 48.569 25.9721 48.6317 25.8542L48.7363 25.6675C48.8188 25.5152 48.9004 25.3639 48.9787 25.2085C49.0446 25.077 49.1084 24.9425 49.1721 24.8089L49.2139 24.7192L49.286 24.5732C49.2892 24.5652 49.2931 24.5576 49.2975 24.5502L50.4672 24.2978L50.5424 24.2822C51.8145 24.0057 52.5158 23.8545 53.3886 23.7606C58.8353 23.1587 60.8233 23.408 61.463 23.5624C61.2613 23.9661 60.5223 25.0228 57.8392 27.1811C55.6891 28.7541 53.4732 30.2928 51.2542 31.7521C48.8481 33.3148 46.3845 34.8398 43.9136 36.2783L43.9156 36.2773Z" fill="white"/>
</svg>
